IKResults
version=1
nRows=11
nColumns=40
inDegrees=yes

Units are S.I. units (second, meters, Newtons, ...)
Angles are in degrees.

endheader
time	pelvis_tilt	pelvis_list	pelvis_rotation	pelvis_tx	pelvis_ty	pelvis_tz	hip_flexion_r	hip_adduction_r	hip_rotation_r	knee_angle_r	knee_angle_r_beta	ankle_angle_r	subtalar_angle_r	mtp_angle_r	hip_flexion_l	hip_adduction_l	hip_rotation_l	knee_angle_l	knee_angle_l_beta	ankle_angle_l	subtalar_angle_l	mtp_angle_l	lumbar_extension	lumbar_bending	lumbar_rotation	arm_flex_r	arm_add_r	arm_rot_r	elbow_flex_r	pro_sup_r	wrist_flex_r	wrist_dev_r	arm_flex_l	arm_add_l	arm_rot_l	elbow_flex_l	pro_sup_l	wrist_flex_l	wrist_dev_l
      0.00000000	     -5.50429173	      6.25113317	      2.43788389	     -1.98533016	      0.87853629	      0.23601829	     12.00657689	     -2.77095528	     -4.71469189	    -86.61655339	     -1.51174404	      4.09206478	    -18.30361554	     20.19247993	     19.39183136	    -11.01838776	      3.95066247	    -46.11877930	     -0.80492455	     17.70691775	      4.66892221	    -11.42111857	    -23.65275730	     -9.80451959	     -5.35608964	    -18.10640361	    -19.23991875	      1.04493925	     83.16756469	     89.95437384	      0.00000000	      0.00000000	    -18.99055699	     28.95759043	      7.05997134	     95.53130791	     89.95437384	      0.00000000	      0.00000000
      0.01000000	     -4.87610070	      5.76039295	      2.46460038	     -1.95531636	      0.87444369	      0.23554622	     16.10171593	     -2.56163374	     -4.26840500	    -90.18881804	     -1.57409182	      5.42642114	    -18.32610990	     19.63357148	     16.00127075	    -10.63637366	      2.76261704	    -45.76552103	     -0.79875903	     19.78696863	      3.63388679	    -11.53437874	    -24.31938305	     -9.03869506	     -6.54713751	    -18.67661602	    -19.27483094	      0.56182285	     81.45613492	     89.95437384	      0.00000000	      0.00000000	    -17.44036938	     29.40398681	      6.45410077	     97.84230037	     89.95437384	      0.00000000	      0.00000000
      0.02000000	     -5.48580786	      5.36704814	      2.63433098	     -1.92624662	      0.86994009	      0.23469378	     21.87845982	     -2.67395488	     -3.91983596	    -93.29759454	     -1.62835021	      6.27705416	    -18.04269742	     19.05397162	     14.43867558	     -9.97505310	      2.94081357	    -45.66601870	     -0.79702238	     21.10551700	      1.62771884	    -11.85016766	    -23.62444699	     -8.34483566	     -7.52245958	    -20.11413397	    -19.30409305	     -0.53790909	     81.01713314	     89.95437384	      0.00000000	      0.00000000	    -15.60969338	     29.79269302	      5.61641957	    100.30350358	     89.95437384	      0.00000000	      0.00000000
      0.03000000	     -5.41462720	      4.81709053	      2.56308973	     -1.89571843	      0.86766282	      0.23416346	     26.69854933	     -2.28680260	     -3.28176008	    -95.19240801	     -1.66142094	      6.08082951	    -17.93013349	     18.77983007	     11.36105486	     -9.29894491	      1.98256679	    -44.40674027	     -0.77504383	     21.80603934	      0.55716343	    -12.05211511	    -23.53758718	     -7.49520784	     -8.45793984	    -21.85782339	    -19.76041994	     -1.33544427	     81.89210318	     89.95437384	      0.00000000	      0.00000000	    -14.11297153	     30.23007892	      5.19889974	    103.58912267	     89.95437384	      0.00000000	      0.00000000
      0.04000000	     -6.11953293	      3.83928048	      2.65895880	     -1.86567971	      0.86528609	      0.23364700	     32.47635833	     -1.37949429	     -2.97119785	    -96.42193425	     -1.68288022	      6.67687632	    -17.79717485	     18.11047275	      9.58350430	     -7.96575426	      1.76115471	    -43.60084152	     -0.76097824	     21.53257426	     -1.48435675	    -12.57260884	    -22.51613105	     -6.18089908	     -9.16054256	    -24.22258248	    -20.26506628	     -2.53958846	     83.96307730	     89.95437384	      0.00000000	      0.00000000	    -12.71541381	     30.75390874	      4.39441231	    107.04128365	     89.95437384	      0.00000000	      0.00000000
      0.05000000	     -6.24500614	      2.77689057	      2.71553757	     -1.83371773	      0.86530151	      0.23290350	     37.07348300	     -0.46430847	     -3.00586591	    -96.41273655	     -1.68271969	      7.02154657	    -17.57239917	     17.83003310	      6.74490634	     -6.64500497	      1.85661719	    -42.09316955	     -0.73466440	     20.75674384	     -1.35619932	    -12.50505740	    -21.97412865	     -4.71069080	    -10.20399044	    -26.41949681	    -21.19072122	     -3.16583842	     86.62352778	     89.95437384	      0.00000000	      0.00000000	    -11.92363161	     30.94915184	      4.33343727	    110.76664537	     89.95437384	      0.00000000	      0.00000000
      0.06000000	     -6.71566462	      1.57629079	      2.69187218	     -1.80140856	      0.86635341	      0.23230193	     41.81356699	      0.55156583	     -3.31854124	    -95.64032849	     -1.66923863	      7.33882551	    -17.29923783	     17.60700091	      4.21485466	     -5.29501972	      0.81310758	    -40.22607795	     -0.70207751	     19.89102067	     -1.52584168	    -12.40861136	    -21.02289589	     -3.14164987	    -11.12250459	    -28.64080567	    -22.24928859	     -3.62328686	     89.56875091	     89.95437384	      0.00000000	      0.00000000	    -11.38738640	     31.18354631	      4.14854730	    114.65880160	     89.95437384	      0.00000000	      0.00000000
      0.07000000	     -7.00578503	     -0.61172145	      3.09259913	     -1.76792528	      0.86991520	      0.23178409	     45.61699255	      2.26558297	     -4.79263550	    -93.47552991	     -1.63145577	      7.22732053	    -17.72125469	     17.57960061	      1.66241010	     -2.63227742	      0.31457154	    -38.42239808	     -0.67059735	     16.39938273	     -1.76742305	    -13.07496804	    -20.19461503	     -0.35492321	    -11.83674825	    -30.93700212	    -23.06092267	     -4.45309888	     92.46275389	     89.95437384	      0.00000000	      0.00000000	    -10.46163855	     30.90796436	      3.82029663	    117.97292675	     89.95437384	      0.00000000	      0.00000000
      0.08000000	     -7.17343711	     -2.20735013	      2.77027950	     -1.73264082	      0.87472445	      0.23154490	     48.78180988	      3.67742145	     -5.69777520	    -90.75917424	     -1.58404642	      7.26876645	    -17.78849166	     17.70479669	     -1.65743931	     -0.83253476	     -0.32510591	    -35.48897761	     -0.61939951	     12.68424690	     -1.07445200	    -13.24711230	    -19.37436342	      1.64127287	    -12.24607047	    -33.08257258	    -24.16184701	     -4.74820327	     95.25216722	     89.95437384	      0.00000000	      0.00000000	    -10.13368202	     30.55608008	      3.72599176	    121.35202928	     89.95437384	      0.00000000	      0.00000000
      0.09000000	     -7.42478390	     -3.56717268	      2.27331558	     -1.69660742	      0.88087080	      0.23168609	     51.47565023	      4.92460691	     -6.54949457	    -87.41811797	     -1.52573398	      6.72903967	    -17.55448460	     17.84003446	     -4.67675491	      0.62252993	     -0.66358865	    -32.60452676	     -0.56905634	      7.87336545	     -0.16890362	    -12.91066501	    -18.49527281	      3.33328591	    -12.52191554	    -35.02453046	    -25.14293576	     -4.82126708	     97.72563990	     89.95437384	      0.00000000	      0.00000000	     -9.93363894	     30.12674743	      3.72752538	    124.35520483	     89.95437384	      0.00000000	      0.00000000
      0.10000000	     -7.33788835	     -5.08774218	      1.64537710	     -1.65903792	      0.88842890	      0.23218298	     53.05097404	      6.42760265	     -7.63520792	    -83.32429433	     -1.45428328	      5.79202878	    -17.45510302	     18.13068656	     -8.30535681	      2.20692153	     -0.86015566	    -29.16251975	     -0.50898199	      2.09415406	      1.34853719	    -12.30571862	    -17.93771352	      5.19776932	    -12.46175766	    -36.95023823	    -25.96513541	     -4.96028663	    100.00846220	     89.95437384	      0.00000000	      0.00000000	     -9.87160232	     29.57704710	      3.39266425	    127.08999020	     89.95437384	      0.00000000	      0.00000000
